<?xml version="1.0" encoding="utf-8"?>
<!-- Generator: Adobe Illustrator 17.0.0, SVG Export Plug-In . SVG Version: 6.00 Build 0)  -->
<!DOCTYPE svg PUBLIC "-//W3C//DTD SVG 1.1//EN" "http://www.w3.org/Graphics/SVG/1.1/DTD/svg11.dtd">
<svg version="1.1" xmlns="http://www.w3.org/2000/svg" xmlns:xlink="http://www.w3.org/1999/xlink" x="0px" y="0px" width="100px"
	 height="100px" viewBox="0 0 100 100" enable-background="new 0 0 100 100" xml:space="preserve">
<g id="Layer_1">
	<path fill="#414042" stroke="#FFFFFF" stroke-miterlimit="10" d="M98.244,85.792c0,6.627-5.373,12-12,12H13.977
		c-6.627,0-12-5.373-12-12V13.525c0-6.627,5.373-12,12-12h72.267c6.627,0,12,5.373,12,12V85.792z"/>
</g>
<g id="Layer_2">
	<polygon fill="#BA4E66" points="37.982,2.743 98.99,57.554 21.018,82.982 	"/>
	<ellipse transform="matrix(-0.9999 0.0128 -0.0128 -0.9999 128.2784 60.9734)" cx="63.944" cy="30.897" rx="2.28" ry="3"/>
	<ellipse transform="matrix(-0.9675 0.2528 -0.2528 -0.9675 76.2124 72.2836)" cx="33.463" cy="41.037" rx="2.28" ry="3"/>
	<path fill="#ED1C24" stroke="#000000" stroke-miterlimit="10" d="M58.141,38.893c-0.029,0.01-14.989,4.759-14.989,4.759l4.92,4.13
		l8.36-2.054L58.141,38.893z"/>
</g>
<g id="Layer_3">
	
		<ellipse transform="matrix(-0.9437 0.3309 -0.3309 -0.9437 153.5089 44.2405)" fill="#F27C96" cx="72.989" cy="35.187" rx="5.976" ry="1.772"/>
	
		<ellipse transform="matrix(-0.9864 0.1641 -0.1641 -0.9864 62.347 89.7962)" fill="#F27C96" cx="27.465" cy="47.473" rx="5.976" ry="1.772"/>
	<line fill="none" stroke="#FFFFFF" stroke-width="4" stroke-miterlimit="10" x1="20.158" y1="82.343" x2="20.158" y2="52.026"/>
	<line fill="none" stroke="#FFFFFF" stroke-width="4" stroke-miterlimit="10" x1="35.317" y1="67.738" x2="5" y2="67.738"/>
	<path fill="none" stroke="#FFFFFF" stroke-miterlimit="10" d="M68.333,73.5c-0.59-0.239-1.381-0.169-2.106-0.167
		c-3.004,0.011-6.051-0.169-9.043,0.121c-2.239,0.217-2.806-0.263-3.38,1.866c-0.447,1.656-1.033,3.398-1.449,4.988
		c1.855,0.139,3.472-0.881,5.381-0.653c3.052,0.364,5.793,2.855,6.108,5.909c0.315,3.055-1.737,4.976-4.634,5.112
		c-3.894,0.183-6.016-1.759-9.378-3.009"/>
	<ellipse fill="none" stroke="#FFFFFF" stroke-miterlimit="10" cx="78.417" cy="81.988" rx="7.25" ry="8.7"/>
</g>
</svg>
