<?xml version="1.0" encoding="utf-8"?>
<!-- Generator: Adobe Illustrator 17.0.0, SVG Export Plug-In . SVG Version: 6.00 Build 0)  -->
<!DOCTYPE svg PUBLIC "-//W3C//DTD SVG 1.1//EN" "http://www.w3.org/Graphics/SVG/1.1/DTD/svg11.dtd">
<svg version="1.1" id="Layer_1" xmlns="http://www.w3.org/2000/svg" xmlns:xlink="http://www.w3.org/1999/xlink" x="0px" y="0px"
	 width="100px" height="100px" viewBox="0 0 100 100" enable-background="new 0 0 100 100" xml:space="preserve">
<polygon fill="#9E1F63" stroke="#000000" stroke-miterlimit="10" points="67.564,76.788 1.093,79.097 31.442,16.746 97.912,14.436 
	"/>
<line fill="none" stroke="#000000" stroke-miterlimit="10" x1="50.834" y1="37.723" x2="36.949" y2="28.155"/>
<line fill="#F1F2F2" stroke="#000000" stroke-miterlimit="10" x1="63.32" y1="37.14" x2="80.589" y2="29.089"/>
<path fill="#8DC63F" d="M49.503,41.282c0,0.741-0.601,1.342-1.342,1.342l0,0c-0.741,0-1.342-0.601-1.342-1.342v-2.217
	c0-0.741,0.601-1.342,1.342-1.342l0,0c0.741,0,1.342,0.601,1.342,1.342V41.282z"/>
<path fill="#8DC63F" d="M67.069,40.699c0,0.741-0.601,1.342-1.342,1.342l0,0c-0.741,0-1.342-0.601-1.342-1.342v-2.217
	c0-0.741,0.601-1.342,1.342-1.342l0,0c0.741,0,1.342,0.601,1.342,1.342V40.699z"/>
<path fill="none" stroke="#000000" stroke-miterlimit="10" d="M63.436,36.673c0-0.772,0-2.237,0-3.267"/>
<path fill="none" stroke="#000000" stroke-miterlimit="10" d="M50.368,37.84c0.432-1.668,1.557-2.283,2.217-3.734"/>
<path fill="#FFFFFF" stroke="#000000" stroke-miterlimit="10" d="M25.63,54.76c0,0,12.019-12.719,25.204-5.718
	s13.186,7.001,13.186,7.001H24.58L25.63,54.76z"/>
<line fill="none" stroke="#000000" stroke-miterlimit="10" x1="29.033" y1="51.869" x2="46.167" y2="51.491"/>
</svg>
