<?xml version="1.0" encoding="utf-8"?>
<!-- Generator: Adobe Illustrator 17.0.0, SVG Export Plug-In . SVG Version: 6.00 Build 0)  -->
<!DOCTYPE svg PUBLIC "-//W3C//DTD SVG 1.1//EN" "http://www.w3.org/Graphics/SVG/1.1/DTD/svg11.dtd">
<svg version="1.1" id="Layer_1" xmlns="http://www.w3.org/2000/svg" xmlns:xlink="http://www.w3.org/1999/xlink" x="0px" y="0px"
	 width="100px" height="100px" viewBox="0 0 100 100" enable-background="new 0 0 100 100" xml:space="preserve">
<polygon fill="#BA4E66" points="49.735,2.045 99.575,87.758 0.425,88.063 "/>
<ellipse transform="matrix(-0.9555 -0.2949 0.2949 -0.9555 122.2286 106.5873)" cx="69.152" cy="44.077" rx="2.756" ry="3.627"/>
<ellipse transform="matrix(-0.9984 -0.0566 0.0566 -0.9984 58.0723 90.496)" cx="30.318" cy="44.426" rx="2.756" ry="3.627"/>
<path fill="#ED1C24" stroke="#000000" stroke-miterlimit="10" d="M59.506,51.121c-0.038,0.001-19.012-0.09-19.012-0.09l4.127,6.578
	l10.38,0.741L59.506,51.121z"/>
<ellipse transform="matrix(-0.9965 0.0835 -0.0835 -0.9965 160.5911 98.7821)" fill="#F27C96" cx="78.23" cy="52.748" rx="7.157" ry="2.123"/>
<ellipse transform="matrix(-0.9961 -0.0887 0.0887 -0.9961 38.7171 108.3397)" fill="#F27C96" cx="21.767" cy="53.309" rx="7.157" ry="2.123"/>
</svg>
